<?xml version="1.0" standalone="no"?>
<!DOCTYPE svg PUBLIC "-//W3C//DTD SVG 20010904//EN"
 "http://www.w3.org/TR/2001/REC-SVG-20010904/DTD/svg10.dtd">
<svg version="1.0" xmlns="http://www.w3.org/2000/svg"
 width="500.000000pt" height="500.000000pt" viewBox="0 0 500.000000 500.000000"
 preserveAspectRatio="xMidYMid meet">

<g transform="translate(0.000000,500.000000) scale(0.100000,-0.100000)"
fill="#000000" stroke="none">
<path d="M2305 4950 c-202 -13 -455 -67 -660 -141 -118 -42 -387 -179 -495
-251 -586 -390 -980 -1007 -1080 -1691 -25 -165 -27 -537 -5 -692 43 -306 145
-610 290 -865 396 -699 1097 -1159 1889 -1240 170 -18 496 -8 651 19 151 27
322 72 445 118 863 322 1472 1091 1586 2003 36 288 1 752 -71 948 l-14 37 0
-46 c-1 -25 8 -88 18 -140 39 -184 46 -270 45 -514 0 -197 -4 -262 -22 -365
-89 -523 -308 -955 -667 -1316 -202 -204 -379 -334 -622 -457 -343 -175 -643
-252 -1028 -264 -558 -17 -1077 148 -1531 487 -127 95 -380 347 -472 471 -263
354 -421 751 -472 1188 -14 119 -14 423 0 538 99 831 592 1532 1335 1898 341
168 677 246 1065 247 275 0 497 -34 758 -116 108 -34 200 -49 161 -26 -74 43
-399 130 -569 153 -144 20 -379 27 -535 17z"/>
<path d="M1394 4241 c-73 -45 -188 -205 -317 -446 -243 -452 -391 -907 -444
-1368 -14 -121 -15 -164 -6 -235 20 -159 78 -261 155 -276 53 -10 145 20 223
71 87 57 215 181 305 293 154 194 520 779 745 1195 104 192 120 215 143 215 9
0 12 -6 7 -17 -8 -23 -62 -300 -115 -593 -22 -124 -52 -288 -66 -364 -14 -77
-52 -257 -85 -400 -161 -694 -175 -737 -273 -844 -67 -73 -232 -290 -309 -407
-105 -159 -197 -361 -197 -431 0 -74 54 -123 119 -109 52 11 143 87 204 171
142 193 242 408 347 748 12 38 37 93 56 123 43 67 245 279 483 507 l176 168
12 -123 c37 -386 238 -608 549 -609 150 0 283 38 492 140 155 76 250 134 370
227 154 120 479 458 528 549 18 34 18 34 -4 56 -33 33 -64 16 -150 -82 -124
-142 -321 -338 -420 -417 -239 -192 -562 -347 -754 -360 -237 -17 -396 97
-479 342 -21 62 -24 88 -24 225 l0 156 48 45 c26 25 47 53 47 62 0 19 -27 47
-46 47 -20 0 -18 19 15 155 106 432 319 815 589 1058 249 225 556 357 679 293
50 -25 76 -85 81 -186 4 -78 1 -95 -32 -195 -54 -160 -160 -348 -300 -530 -78
-101 -77 -100 -70 -119 7 -19 52 -21 74 -3 22 17 176 225 240 322 143 219 217
450 190 589 -34 176 -114 249 -270 249 -191 -1 -464 -144 -693 -362 -197 -189
-323 -377 -445 -661 -87 -203 -179 -504 -198 -647 -7 -53 -7 -53 -158 -192
-83 -77 -216 -205 -296 -285 -80 -80 -151 -146 -159 -146 -21 0 -9 73 58 345
33 132 85 375 116 540 30 165 99 525 151 800 60 313 94 513 90 533 -7 45 -23
62 -56 62 -38 0 -77 -48 -142 -175 -100 -195 -302 -572 -381 -710 -134 -235
-418 -682 -535 -845 -138 -192 -355 -367 -444 -358 -26 2 -36 10 -50 38 -97
197 18 810 254 1365 105 247 234 480 373 673 36 50 65 100 65 111 0 33 -32 43
-66 22z m206 -3112 c-69 -171 -153 -316 -237 -409 -67 -75 -95 -64 -62 22 29
74 110 212 204 347 47 68 91 133 97 145 l11 21 10 -22 c7 -17 2 -40 -23 -104z"/>
</g>
</svg>
